<?xml version="1.0" encoding="UTF-8"?>
<!-- Created with Inkscape (http://www.inkscape.org/) -->
<svg id="svg2" width="640" height="640" version="1.1" viewBox="0 0 640 640" xmlns="http://www.w3.org/2000/svg" xmlns:cc="http://creativecommons.org/ns#" xmlns:dc="http://purl.org/dc/elements/1.1/" xmlns:rdf="http://www.w3.org/1999/02/22-rdf-syntax-ns#">
	<title id="title1">Brand character for the Gromox server</title>
	<metadata id="metadata8">
		<rdf:RDF>
			<cc:Work rdf:about="">
				<dc:format>image/svg+xml</dc:format>
				<dc:type rdf:resource="http://purl.org/dc/dcmitype/StillImage"/>
				<dc:date>2021-02-02</dc:date>
				<dc:creator>
					<cc:Agent>
						<dc:title>Jan Engelhardt</dc:title>
					</cc:Agent>
				</dc:creator>
				<dc:rights>
					<cc:Agent>
						<dc:title>Jan Engelhardt, CC-BY-SA-4.0</dc:title>
					</cc:Agent>
				</dc:rights>
				<dc:description>Columbidae × blue-mutation rose-ringed parakeet hybrid</dc:description>
				<dc:title>Brand character for the Gromox server</dc:title>
			</cc:Work>
		</rdf:RDF>
	</metadata>
	<defs id="defs6">
		<linearGradient id="linearGradient4515" x1="2.0182" x2="42.333" y1="214.35" y2="254.67" gradientTransform="matrix(7.1437 0 0 7.1437 17.583 -1499.3)" gradientUnits="userSpaceOnUse" spreadMethod="reflect">
			<stop id="stop4529" stop-color="#fff" offset="0"/>
			<stop id="stop4531" stop-color="#d2d8dc" offset="1"/>
		</linearGradient>
	</defs>
	<g id="layer2">
		<rect id="rect4507" y="-2.9747e-5" width="640" height="640" rx="80" ry="80" fill="#1e6dfd" style="paint-order:normal"/>
		<rect id="rect4525" x="16" y="16" width="608" height="608" rx="80" ry="80" fill="#1e9cfd" style="paint-order:normal"/>
		<rect id="rect4505" x="32" y="32" width="576" height="576" rx="80" ry="80" fill="url(#linearGradient4515)" style="paint-order:normal"/>
	</g>
	<g id="layer6">
		<path id="path5811" d="m134.04 300.86 7.9643 339.14h61l113.55-376.81 10.983-155.66-47.215 16.83-125.68 157.81z" fill="#11bfff" fill-rule="evenodd" stroke="#c6c6c6" stroke-width=".1"/>
		<path id="path5772" d="m316.55 263.19-13.433 14.963-12.314 15.156-10.42 15.63-12.693 23.942-25.41 55.817-16.529 37.132-12.148 32.301-8.0516 22.26-6.3939 25.813-4.2626 24.628-1.6577 25.102-0.94725 26.286 1.6577 24.155 4.4994 18.945 4.5514 14.682h275l5.3898-17.742 6.45-21.939 5.2909-21.357 4.6116-20.366 3.2468-17.82 3.1814-20.677 0.46115-16.739-0.95971-16.723-2.5987-14.785-4.9668-17.153-7.5281-19.297-5.0136-12.831-4.6095-14.23-3.8406-14.349-4.9957-24.192-0.96678-12.582 0.0377-18.504 1.5254-15.449 4.004-17.393 5.4095-16.539 13.418-23.485-36.027-9.3469z" fill="#0190ff" fill-rule="evenodd"/>
		<path id="path5774" d="m495.1 196.65-28.672-85.434-92.541-39.194-46.356 35.506-9.257 7.5285-9.0898 9.4909-8.4215 11.229-4.5449 7.3521-5.2133 11.496-3.3418 8.4215-2.8072 10.159-0.93572 8.6888-0.80205 10.56 0.40102 10.159 1.8714 9.2235 2.6735 8.8225 3.3419 8.0205 4.1439 8.2878 4.6786 8.2878 9.3572 11.763 6.9627 6.1652 7.8752 6.2666 7.2184 4.5449 7.0847 3.3419 6.8174 2.5398 7.0847 1.7378 7.4858 1.3367 8.1541 0.80205 8.6888-0.13367 7.8868-0.26735 10.026-1.6041 7.0847-2.2725 8.4215-2.5398 11.095-5.347 12.164-5.4806 6.3756-3.4038z" fill="#67b6ff" fill-rule="evenodd"/>
		<path id="path5760" d="m402.59 109.92-0.0404 19.874c0.55795 13.022 2.0312 25.977 3.261 38.947l3.7028 5.2801 4.2642 0.88225 9.0716-1.8277 12.218-0.97096 13.075-0.43505 12.428 1.784 12.633 3.3625 12.833 3.3078-19.602-68.907-35.217-6.9234-9.7048-5.8229-10.675-4.6906c-10.26-3.943-6.9126 6.5409-8.2467 16.139z" fill="#ebebeb" fill-rule="evenodd"/>
		<path id="path5758" d="m506.43 194.39 9.2691-0.81801 12.152 0.88379 12.4 1.7468-1.242-13.347-2.7619-13.367-3.6457-12.042-4.3085-11.489-4.6399-10.827-5.6342-10.164-7.1808-11.047-9.0589-11.931-10.606-11.268-10.495-8.5065-9.9427-7.0704-9.9427-5.3028-9.1694-4.198-11.931-4.198-12.373-2.7619-11.821-1.4362-12.484-0.11048-10.385 0.77332-12.373 1.7676-9.3903 2.2095-6.6116 2.2983 84.184 25.55z" fill="#01aeff" fill-rule="evenodd"/>
		<path id="path5744" d="m176.15 252.68-21.509 29.497-20.603 18.682 26.07-17.145 21.776-28.266 16.301-16.715 13.19-14.845 13.326-14.751 17.972-20.574 20.901-22.898 15.63-18.708 12.551-12.551 13.261-11.13 12.008-8.95 10.513-6.7933 12.778-6.7933 10.19-4.0436 10.513-3.3967 11.322-2.1027 10.513-0.97048h9.3813l9.0578 1.294 3.7429 0.80205 5.8001 1.4624 10.675 4.6906 9.7048 5.8229 7.6021 5.8228 7.2786 6.7933 9.8665 10.837 12.94 18.439 17.132 33.938 9.0704 16.527 11.322-2.2644-1.7792-12.131-2.5879-11.646-4.2054-13.263-5.4994-13.101-5.3376-12.616-5.3376-11.322-6.7933-11.16-7.1168-8.896-8.5725-10.028-9.543-7.4403-8.5725-5.1759-12.131-5.6611-10.675-3.8819-11.484-3.3967-13.101-1.6175-10.19-0.80873-10.837 0.64698-8.4108 1.294-10.837 3.3967-11.807 5.1759-11.646 5.3376-11.646 6.9551-11.322 7.6021-13.263 10.028-10.513 9.2195-11.484 10.999-11.322 12.131-11.484 13.91-13.425 16.336-12.616 17.145-13.101 19.086-15.689 23.777z" fill="#0190ff" fill-rule="evenodd"/>
		<path id="path5790" d="m459.21 264.63 11.034 0.19161 12.742-0.0444 12.564 1.075 8.9201 1.0936 8.4692 1.863 8.2357 2.0848 9.1341 1.9941 12.278 3.1221-23.718-40.561-47.659-1.9173z" fill="#a90017" fill-rule="evenodd"/>
		<path id="path4671" d="m316.55 263.19 7.8752 6.2666 7.2184 4.5449 7.0847 3.3419 6.8174 2.5398 7.0847 1.7378 7.4858 1.3367 8.1541 0.80205 8.6888-0.13367 7.8868-0.26735 10.026-1.6041 7.0847-2.2725 8.4215-2.5398 11.095-5.347 12.164-5.4806 6.3756-3.4038 39.084-28.11" fill="none" stroke="#000" stroke-opacity=".52609" stroke-width="8"/>
		<path id="path5788" d="m506.43 194.39-11.322 2.2644-8.7878 5.712-8.8544 7.6779-9.9677 9.4673-8.0976 9.4087-8.331 12.012-6.6818 11.32-4.3688 10.457 9.3485 0.95355 9.8424 0.96246 10.024-1.0908 8.9-3.7068 8.2397-4.4447 7.9576-1.969 9.6246 0.93572 6.55 1.3367 9.4909 2.8072 7.3521 3.8766 6.6837 5.0796 8.5552 8.5552 8.2878 9.6246 12.007-42.821z" fill="#9d0140" fill-rule="evenodd"/>
		<path id="path5778" d="m550.87 285.63 7.1999 8.4983 8.1368 11.391 3.7788-12.537 1.7378-8.6888 1.0694-7.3521 0.26735-7.6194 0.80205-8.2878-0.26735-7.3521-0.26735-8.6888-0.13368-7.2184-1.8714-8.1541-1.6041-5.8817-2.2725-5.6143-2.2725-4.6786-3.0745-4.946-3.8766-3.2082-6.6837-3.8766-6.6837-3.0745-4.6088-2.1375-8.4913-1.4717-3.9086-0.27509-12.152-0.88379-9.2691 0.81801 11.82 16.412 13.777 22.706 9.9043 18.785 7.2414 17.027z" fill="#dc006a" fill-rule="evenodd"/>
		<path id="path4588" d="m435.06 172.11 13.075-0.43505 12.428 1.784 5.0054-0.80235 3.412-5.2819 1.9886-6.5273-0.32437-6.5273-1.7477-8.1286-12.94-18.439-7.5481 1.9228-5.5733 4.6018-2.774 4.192-3.4667 6.2642-1.8383 7.1504-0.42114 7.5418 0.13016 6.9905z" fill="#494949" fill-rule="evenodd"/>
		<path id="path4595" d="m392.23 90.227 4.1719 19.57 3.9141 20.283 3.0254 19.215 2.4629 19.449-3.2617-38.945 2.2598-15.215 2.3438-8.0742 2.3457-3.9082 3.125-2.6035 3.9082-1.8242 4.9805 0.30078-10.676-4.6914-5.7988-1.4609-3.7441-0.80274z" fill="#55c9ff" fill-rule="evenodd"/>
	</g>
	<g id="g4663">
		<path id="rect4683" d="m134.04 300.86-19.988 15.859-30.957 19.037-41.693 294.38c11.435 6.2844 24.584 9.8633 38.604 9.8633h62l5.2637-7.291 6.2969-13.146 5.1914-12.484 5.3027-12.814 18.561-57.336 4.418-13.699 2.6524-10.496 2.3203-13.588 1.6562-10.273 0.88281-10.164 0.66406-10.938 0.33204-12.373-0.22266-11.932-0.77344-13.256-1.2148-13.811-1.6562-12.373-2.873-15.465-3.3144-13.146-3.6445-10.828-4.9727-12.152-5.5234-10.715-5.4121-8.8379-7.0703-9.3906-9.0606-9.3906z" fill="#11d5ff" style="paint-order:normal"/>
		<path id="rect4685" d="m72.062 349.44-5.3477 0.9707-6.9258 3.1602-7.1797 5.3867-9.3027 7.0645-9.0586 9.0586-8.3965 10.053-6.4082 9.0586-5.5234 10.385-5.873 12.545-8.0469 22.877v120c0 8.4014 1.2859 16.49 3.666 24.086l7.2715-7.7637 9.2344-10.207 12.031-13.367 9.3574-12.275 8.2637-10.693 7.6562-10.938 6.5625-9.8418 7.291-11.545 5.7109-10.816 5.7109-11.059 4.1328-9.7207 4.1309-10.33 4.0117-12.031 3.8887-12.395 2.1855-9.4785 2.1875-9.7227 0.60937-8.8711-0.24414-9.5996-0.48632-7.7773-1.5801-7.8984-2.5508-7.0488-3.8887-7.0488-3.5254-5.1035-3.8887-4.0098-4.0098-2.7949-3.2812-1.459-3.0371-0.72852z" fill="#11b3ff" style="paint-order:normal"/>
		<path id="rect4665" d="m90.027 335.04-6.9375 0.71094-14.098 9.4512-7.709 5.6699-8.6738 8.082-50.439 219.6c5.5978 23.729 21.683 43.318 43.156 53.609l11.607-17.074 13.701-17.08 16.369-24.02 13.166-21.352 9.0742-18.504 8.7168-19.57 6.0488-18.326 4.0938-17.258 3.9141-19.217 2.1348-19.393-0.5332-19.215-2.1367-18.504-5.3359-20.816-4.627-13.523-5.3379-10.852-7.4727-10.676-6.7598-6.4043-5.1602-3.7363z" fill="#11c4ff" style="paint-order:normal"/>
	</g>
	<g id="layer4" display="none" fill-rule="evenodd">
		<path id="path5808" d="m134.04 300.86-19.989 15.859-30.958 19.037-43.089 304.24h102l5.2627-7.2913 6.297-13.146 5.1923-12.484 5.3028-12.815 18.56-57.336 4.419-13.699 2.6514-10.495 2.32-13.588 1.6571-10.274 0.88379-10.164 0.66285-10.937 0.33142-12.373-0.22095-11.931-0.77332-13.257-1.2152-13.809-1.6571-12.373-2.8723-15.466-3.3142-13.146-3.6457-10.827-4.9714-12.152-5.5237-10.716-5.4133-8.838-7.0704-9.3904-9.0589-9.3903z" display="inline" fill="#ff9d11"/>
		<path id="path5803" d="m52.609 358.96 8.6742-8.0826 7.71-5.6691 14.096-9.4511 6.9389-0.71168 6.761 1.6013 5.1597 3.7363 6.761 6.4051 7.4727 10.675 5.3376 10.853 4.6259 13.522 5.3376 20.817 2.135 18.504 0.53376 19.215-2.135 19.393-3.9142 19.215-4.0922 17.258-6.0493 18.326-8.7181 19.571-9.074 18.504-13.166 21.35-16.369 24.019-13.7 17.08-16.935 24.909h-39.726l-0.2739-52" display="inline" fill="#ffae11"/>
		<path id="path5796" d="m52.609 358.96 7.1802-5.3863 6.9268-3.1596 5.347-0.97217 5.347 0.12152 3.0381 0.72913 3.2811 1.4583 4.0102 2.795 3.8887 4.0102 3.5241 5.1039 3.8887 7.0483 2.552 7.0483 1.5798 7.8989 0.48609 7.7774 0.24304 9.6002-0.60761 8.8711-2.1874 9.7218-2.1874 9.4787-3.8887 12.395-4.0102 12.031-4.1318 10.329-4.1318 9.7218-5.7115 11.059-5.7115 10.815-7.2913 11.545-6.5622 9.8433-7.6559 10.937-8.2635 10.694-9.3572 12.274-12.031 13.367-9.2357 10.208-10.937 11.678v-148l8.0461-22.878 5.8737-12.544 5.5237-10.385 6.4075-9.0589 8.3961-10.053 9.0589-9.0589z" display="inline" fill="#ffbf11"/>
	</g>
	<g id="layer3">
		<path id="rect4605" d="m80 0c-44.32 0-80 35.68-80 80v480c0 44.32 35.68 80 80 80h480c44.32 0 80-35.68 80-80v-480c0-44.32-35.68-80-80-80zm32 32h416c44.32 0 80 35.68 80 80v416c0 44.32-35.68 80-80 80h-416c-44.32 0-80-35.68-80-80v-416c0-44.32 35.68-80 80-80z" fill="#b2b6bc" style="paint-order:normal"/>
	</g>
	<g id="layer1">
		<path id="rect4597" d="m96 16c-44.32 0-80 35.68-80 80v448c0 44.32 35.68 80 80 80h448c44.32 0 80-35.68 80-80v-448c0-44.32-35.68-80-80-80zm16 16h416c44.32 0 80 35.68 80 80v416c0 44.32-35.68 80-80 80h-416c-44.32 0-80-35.68-80-80v-416c0-44.32 35.68-80 80-80z" fill="#a0a5a8" style="paint-order:normal"/>
	</g>
</svg>
